<?xml version="1.0" encoding="utf-8"?>
<!-- Generator: Adobe Illustrator 16.0.0, SVG Export Plug-In . SVG Version: 6.00 Build 0)  -->
<!DOCTYPE svg PUBLIC "-//W3C//DTD SVG 1.1//EN" "http://www.w3.org/Graphics/SVG/1.1/DTD/svg11.dtd">
<svg version="1.1" id="Layer_1" xmlns="http://www.w3.org/2000/svg" xmlns:xlink="http://www.w3.org/1999/xlink" x="0px" y="0px" viewBox="-29.102 150.938 400 166.048" enable-background="new -29.102 150.938 400 166.048"
	 xml:space="preserve">
<g>
	<path fill="#E43111" d="M270.242,172.996c-2.457-3.734-6.748-7.207-12.906-10.385c0,0-28.039,0.132-84.086,0.459
		c-23.617-14.348-49.659-14.675-78.124-0.917c-12.218-7.108-26.435-11.17-41.568-11.17c-45.793,0-82.907,37.113-82.907,82.906
		c0,45.761,37.113,82.874,82.907,82.874c14.249,0,27.646-3.603,39.341-9.925l-0.065,0.131c27.155,13.725,54.736,13.397,82.71-0.917
		c54.507-0.295,81.793-0.426,81.793-0.426c4.455-1.475,8.058-3.636,10.842-6.52c51.461-0.327,77.207-0.458,77.207-0.458
		c2.358-1.539,3.113-3.832,2.295-6.846c-47.367,0.459-71.05,0.688-71.05,0.688c-0.754-1.54-1.146-2.293-1.146-2.293
		c-50.118-0.164-75.145-0.229-75.145-0.229c-3.046-1.375-4.586-2.063-4.586-2.063c-52.083-0.458-78.124-0.688-78.124-0.688
		c2.653-2.719,4.487-5.241,5.47-7.534c108.589,0,162.898,0,162.898,0c1.834-0.622,2.752-0.917,2.752-0.917
		c46.579-0.164,69.901-0.229,69.901-0.229c2.522-0.295,3.67-2.325,3.408-6.158c-47.203,0-70.821,0-70.821,0
		c-1.211-1.834-1.801-2.751-1.801-2.751c-52.41,0.295-78.616,0.458-78.616,0.458c-1.966-2.293-2.948-3.438-2.948-3.438
		c-51.624,0.163-77.468,0.229-77.468,0.229l0.884-4.193c0.295-0.785,0.589-1.605,0.852-2.424l160.933,0.459
		c2.13-1.212,3.21-1.834,3.21-1.834c46.744,0.164,70.131,0.229,70.131,0.229c2.753-2.261,2.753-4.554,0-6.847
		c-46.153,0-69.214,0-69.214,0c-0.883-1.999-1.277-2.687-1.146-2.064c-52.869-0.131-79.271-0.229-79.271-0.229
		c-1.539-1.965-2.293-2.948-2.293-2.948c-52.541,0-78.812,0-78.812,0c0.458-4.127,0.688-6.191,0.688-6.191
		c106.459-0.131,159.688-0.229,159.688-0.229c2.228-1.344,3.474-1.966,3.637-1.802c45.859,0,68.789,0,68.789,0
		c2.456-1.048,2.815-3.178,1.145-6.42c-46.317,0.163-69.476,0.229-69.476,0.229c-2.261-1.048-3.406-1.605-3.406-1.605
		c-52.083-0.131-78.125-0.229-78.125-0.229c-1.834-2.261-2.751-3.407-2.751-3.407c-53,0.164-79.5,0.229-79.5,0.229
		c0.294-3.963,0.458-5.961,0.458-5.961c106-0.132,159-0.197,159-0.197c1.737-1.736,2.752-2.489,2.981-2.293
		c45.825,0,68.756,0,68.756,0c0.328-3.341-0.752-5.47-3.211-6.387c-45.367,0.295-68.067,0.426-68.067,0.426
		c-1.834-1.213-2.752-1.802-2.752-1.802c-53.457,0.131-80.188,0.229-80.188,0.229c-1.212-2.293-1.835-3.438-1.835-3.438
		c-52.672-0.164-79.041-0.229-79.041-0.229l-0.787-1.77c-0.524-1.474-1.081-2.948-1.703-4.389l160.113,0.458
		c1.244-1.539,1.835-2.293,1.835-2.293c44.646-0.163,66.953-0.229,66.953-0.229c-0.098-3.178-1.473-5.372-4.126-6.618
		c-44.025,0.296-66.004,0.46-66.004,0.46c-2.457-1.376-3.67-2.064-3.67-2.064c-53.459,0.295-80.187,0.459-80.187,0.459
		c-2.294-2.13-3.441-3.21-3.441-3.21l-78.516-0.229c-1.441-2.194-2.981-4.324-4.651-6.388l159.261,0.229
		c1.213-1.375,1.835-2.063,1.835-2.063c42.648,0.164,63.941,0.229,63.941,0.229c-0.788-3.374-2.62-5.635-5.471-6.847
		C292.778,173.224,270.242,172.996,270.242,172.996z M53.557,183.74c-27.68,0-50.15,22.438-50.15,50.149
		c0,27.68,22.471,50.118,50.15,50.118c27.679,0,50.118-22.438,50.118-50.118C103.675,206.177,81.236,183.74,53.557,183.74z"/>
	<circle fill="#FEFEFE" cx="53.557" cy="233.89" r="50.118"/>
	<path fill="#373435" d="M19.818,252.004c5.47,10.581,14.97,16.936,28.531,19.098c0-16.313,0-24.47,0-24.47
		c-5.667-2.097-8.615-6.092-8.909-11.988c0.196-7.01,3.21-11.531,9.073-13.528c0.131-16.313,0.196-24.469,0.196-24.469
		c-14.249,3.373-24.01,10.384-29.251,20.963C13.693,229.206,13.922,240.54,19.818,252.004z M74.194,265.107
		c-5.208,4.291-11.399,6.256-18.639,5.83c0-49.396,0-74.128,0-74.128c18.639,1.999,30.169,10.974,34.558,26.894
		c-10.613,0-15.919,0-15.919,0c0.131,3.177,0.164,4.781,0.164,4.781c11.432-0.327,17.132-0.523,17.132-0.523
		c0.229,8.222,0.328,12.35,0.328,12.35c-1.572,4.65-2.392,7.011-2.392,7.011c-10.023,0-15.068,0-15.068,0
		C74.259,259.178,74.194,265.107,74.194,265.107z"/>
</g>
</svg>
