<?xml version="1.0" encoding="utf-8"?>
<!-- Generator: Adobe Illustrator 16.0.0, SVG Export Plug-In . SVG Version: 6.00 Build 0)  -->
<!DOCTYPE svg PUBLIC "-//W3C//DTD SVG 1.1//EN" "http://www.w3.org/Graphics/SVG/1.1/DTD/svg11.dtd">
<svg version="1.1" id="Layer_1" xmlns="http://www.w3.org/2000/svg" xmlns:xlink="http://www.w3.org/1999/xlink" x="0px" y="0px" viewBox="0 0 400 166.051" enable-background="new 0 0 400 166.051" xml:space="preserve">
<g>
	<path fill="#E43111" d="M299.597,22.013c-2.455-3.735-6.747-7.208-12.904-10.384c0,0-28.04,0.131-84.089,0.425
		c-23.617-14.348-49.66-14.643-78.126-0.885C112.26,4.062,98.043,0,82.876,0C37.115,0,0,37.113,0,82.875
		c0,45.794,37.115,82.908,82.876,82.908c14.25,0,27.681-3.604,39.374-9.924l-0.064,0.131c27.154,13.723,54.737,13.396,82.711-0.918
		c54.509-0.295,81.796-0.457,81.796-0.457c4.455-1.443,8.057-3.605,10.841-6.488c51.461-0.327,77.211-0.459,77.211-0.459
		c2.356-1.539,3.111-3.832,2.29-6.878c-47.365,0.458-71.047,0.688-71.047,0.688c-0.755-1.507-1.148-2.261-1.148-2.261
		c-50.117-0.163-75.179-0.229-75.179-0.229c-3.046-1.375-4.554-2.063-4.554-2.063c-52.083-0.459-78.124-0.688-78.124-0.688
		c2.652-2.753,4.487-5.242,5.47-7.535c108.591,0,162.9,0,162.9,0c1.835-0.622,2.721-0.917,2.721-0.917
		c46.612-0.164,69.937-0.229,69.937-0.229c2.521-0.295,3.668-2.358,3.405-6.157c-47.201,0-70.82,0-70.82,0
		c-1.211-1.835-1.833-2.752-1.833-2.752c-52.381,0.295-78.586,0.457-78.586,0.457c-1.965-2.292-2.949-3.438-2.949-3.438
		c-51.656,0.163-77.469,0.229-77.469,0.229l0.885-4.192c0.293-0.786,0.589-1.605,0.852-2.425l160.936,0.46
		c2.13-1.212,3.21-1.835,3.21-1.835c46.745,0.165,70.134,0.23,70.134,0.23c2.718-2.294,2.718-4.555,0-6.848
		c-46.155,0-69.216,0-69.216,0c-0.884-1.998-1.279-2.686-1.149-2.063c-52.867-0.131-79.271-0.229-79.271-0.229
		c-1.54-1.966-2.291-2.948-2.291-2.948c-52.543,0-78.814,0-78.814,0c0.459-4.128,0.688-6.19,0.688-6.19
		c106.463-0.133,159.689-0.23,159.689-0.23c2.229-1.344,3.441-1.966,3.639-1.835c45.861,0,68.758,0,68.758,0
		c2.49-1.015,2.849-3.177,1.145-6.387c-46.285,0.162-69.445,0.229-69.445,0.229c-2.29-1.048-3.404-1.606-3.404-1.606
		c-52.117-0.13-78.158-0.228-78.158-0.228c-1.805-2.261-2.721-3.405-2.721-3.405c-53,0.13-79.502,0.228-79.502,0.228
		c0.296-3.964,0.459-5.962,0.459-5.962c106.004-0.13,159.004-0.229,159.004-0.229c1.737-1.705,2.751-2.457,2.947-2.261
		c45.859,0,68.791,0,68.791,0c0.295-3.342-0.755-5.471-3.21-6.42c-45.402,0.327-68.07,0.459-68.07,0.459
		c-1.835-1.213-2.75-1.803-2.75-1.803c-53.461,0.131-80.192,0.229-80.192,0.229c-1.21-2.293-1.835-3.439-1.835-3.439
		c-52.704-0.164-79.041-0.229-79.041-0.229l-0.787-1.77c-0.523-1.475-1.08-2.948-1.702-4.39l160.116,0.46
		c1.245-1.54,1.835-2.295,1.835-2.295c44.615-0.163,66.955-0.229,66.955-0.229c-0.098-3.178-1.473-5.372-4.127-6.616
		c-44.027,0.294-66.038,0.458-66.038,0.458c-2.426-1.376-3.636-2.063-3.636-2.063c-53.461,0.294-80.189,0.458-80.189,0.458
		c-2.293-2.13-3.441-3.211-3.441-3.211l-78.518-0.229c-1.441-2.194-3.015-4.324-4.651-6.389l159.265,0.229
		c1.211-1.375,1.835-2.063,1.835-2.063c42.618,0.163,63.942,0.229,63.942,0.229c-0.787-3.375-2.619-5.635-5.471-6.847
		C322.135,22.242,299.597,22.013,299.597,22.013z M82.876,32.757c-27.68,0-50.118,22.438-50.118,50.118
		c0,27.713,22.438,50.151,50.118,50.151c27.713,0,50.151-22.438,50.151-50.151C133.027,55.196,110.589,32.757,82.876,32.757z"/>
	<circle fill="#FEFEFE" cx="83.27" cy="83.399" r="50.119"/>
	<path fill="#104277" d="M44.583,63.451c7.928,0.295,11.892,0.458,11.892,0.458c0.162,34.724,0.229,52.084,0.229,52.084
		c5.306,4.194,10.711,6.486,16.216,6.847c0-39.44,0-59.158,0-59.158c8.843-0.165,13.266-0.23,13.266-0.23c0-8.975,0-13.464,0-13.464
		c-10.974,0-21.423,0-31.316,0C49.857,54.115,46.417,58.601,44.583,63.451z M120.22,63.451c-1.441-5.307-4.946-9.959-10.516-13.923
		c0,0-6.485,0-19.425,0c0,49.201,0,73.77,0,73.77c7.108-0.949,12.514-3.242,16.215-6.846c0-18.867,0-28.336,0-28.336
		c12.056-0.294,18.049-0.458,18.049-0.458c-0.294-8.517-0.459-12.774-0.459-12.774c-12.021,0-18.048,0-18.048,0
		c0.162-7.633,0.229-11.433,0.229-11.433C115.568,63.451,120.22,63.451,120.22,63.451z"/>
</g>
</svg>
